<?xml version="1.0" encoding="UTF-8" standalone="no"?><!-- Generator: Gravit.io --><svg xmlns="http://www.w3.org/2000/svg" xmlns:xlink="http://www.w3.org/1999/xlink" style="isolation:isolate" viewBox="0 0 500 500" width="500pt" height="500pt"><path d=" M 250.007 500 L 250.007 500 C 111.925 500 0 388.074 0 250.007 L 0 250.007 C 0 111.925 111.925 0 250.007 0 L 250.007 0 C 388.075 0 500 111.925 500 250.007 L 500 250.007 C 500 388.074 388.075 500 250.007 500 Z  M 192.636 73.33 C 189.984 74.021 188.37 75.405 188.37 77.826 C 188.37 80.248 190.907 81.862 192.982 82.9 C 202.322 88.55 212.814 104.462 212.814 121.411 C 212.814 167.994 154.471 210.426 154.471 258.854 C 154.24 299.671 182.951 332.072 220.54 345.908 C 225.037 347.753 232.877 351.097 232.877 344.64 C 232.877 341.988 230.687 341.873 228.611 341.065 C 219.963 337.606 214.544 333.34 209.24 325.73 C 200.938 313.623 199.093 301.286 199.093 286.757 C 199.093 254.472 243.716 248.592 243.716 216.076 C 243.716 203.738 235.875 200.164 235.875 196.705 C 235.875 194.514 236.682 194.514 238.873 194.514 C 246.944 194.514 258.014 207.889 261.473 214.462 C 263.664 219.074 263.894 220.573 263.894 225.531 C 263.894 232.564 263.318 239.829 263.318 247.093 C 263.318 274.304 295.372 267.04 295.372 253.896 C 295.372 247.9 291.798 242.25 291.798 236.369 L 292.605 235.101 C 296.064 235.101 302.06 242.826 303.674 245.248 C 309.555 254.357 312.322 266.233 312.322 276.956 C 312.322 309.703 282.458 326.422 282.458 333.455 C 282.458 334.493 285.456 341.411 294.796 335.531 C 324.659 320.195 348.297 287.449 348.297 244.902 C 348.297 211.003 339.649 186.558 316.012 161.652 C 311.976 157.386 299.408 144.472 293.181 144.472 C 284.879 144.472 300.445 163.267 300.445 175.95 C 300.445 183.214 295.603 188.518 288.108 188.518 C 276.347 188.518 273.349 162.921 271.965 154.85 C 266.085 120.72 259.051 96.16 225.152 80.133 C 217.196 76.212 200.477 71.485 192.636 73.33 L 192.636 73.33 Z  M 131.756 387.764 C 120.802 387.764 112.5 396.411 112.5 407.711 C 112.5 418.434 121.148 427.082 131.756 427.082 L 371.012 427.082 C 374.932 427.082 387.5 425.583 387.5 407.135 C 387.5 395.374 381.043 387.764 371.012 387.764 L 131.756 387.764 L 131.756 387.764 Z " fill-rule="evenodd" fill="rgb(245,245,245)"/></svg>