<?xml version="1.0" encoding="UTF-8" standalone="no"?><!-- Generator: Gravit.io --><svg xmlns="http://www.w3.org/2000/svg" xmlns:xlink="http://www.w3.org/1999/xlink" style="isolation:isolate" viewBox="0 0 500 500" width="500pt" height="500pt"><path d=" M 433 420.34 C 474.568 375.694 500 315.82 500 250.007 L 500 250.007 C 500 111.938 388.074 -0.001 250.006 -0.001 L 250.006 -0.001 C 111.928 -0.001 0 111.938 0 250.007 L 0 250.007 C 0 388.075 111.928 500.001 250.006 500.001 L 250.006 500.001 C 319.398 500.001 382.187 471.728 427.481 426.074 L 357.793 426.074 C 357.793 426.074 357.793 333.102 357.793 297.935 C 357.793 262.806 344.44 243.179 316.66 243.179 C 286.404 243.179 270.615 263.631 270.615 297.935 L 270.615 297.935 C 270.615 335.538 270.615 426.074 270.615 426.074 L 198.132 426.074 L 198.132 181.978 L 270.615 181.978 L 270.615 214.843 C 270.615 214.843 292.39 174.515 344.172 174.515 C 395.934 174.515 433 206.132 433 271.516 C 433 334.475 433 419.49 433 420.34 Z  M 74.252 426.074 L 149.823 426.074 L 149.823 181.978 L 74.252 181.978 L 74.252 426.074 L 74.252 426.074 Z  M 111.683 150.015 C 136.355 150.015 156.366 129.813 156.366 104.949 C 156.366 80.084 136.355 59.92 111.683 59.92 C 86.991 59.92 67 80.084 67 104.949 C 67 129.813 86.991 150.015 111.683 150.015 L 111.683 150.015 Z " fill-rule="evenodd" fill="rgb(245,245,245)"/></svg>