<?xml version="1.0" encoding="UTF-8" standalone="no"?><!-- Generator: Gravit.io --><svg xmlns="http://www.w3.org/2000/svg" xmlns:xlink="http://www.w3.org/1999/xlink" style="isolation:isolate" viewBox="0 0 500 500" width="500pt" height="500pt"><path d=" M 250.007 500 L 250.007 500 C 111.925 500 0 388.075 0 250.007 L 0 250.007 C 0 111.939 111.925 0 250.007 0 L 250.007 0 C 388.075 0 500 111.939 500 250.007 L 500 250.007 C 500 388.075 388.075 500 250.007 500 Z  M 118.071 324.042 L 118.071 261.121 L 176.158 261.121 C 186.305 261.228 194.15 262.556 199.746 265.124 C 209.77 269.711 214.782 278.14 214.782 290.413 C 214.782 304.934 209.611 314.745 199.268 319.881 C 193.584 322.661 185.597 324.042 175.379 324.042 L 118.071 324.042 L 118.071 324.042 Z  M 118.071 170.025 L 169.41 170.025 C 180.709 170.025 190.006 171.247 197.303 173.709 C 205.75 177.232 209.982 184.493 209.982 195.473 C 209.982 205.408 206.777 212.315 200.384 216.211 C 194.009 220.107 185.685 222.055 175.432 222.055 L 118.071 222.055 L 118.071 170.025 L 118.071 170.025 Z  M 337.135 233.46 C 343.581 226.837 352.648 223.507 364.354 223.507 C 375.139 223.507 384.153 226.641 391.431 232.893 C 398.71 239.18 402.765 248.371 403.58 260.484 L 324.969 260.484 C 326.633 249.115 330.689 240.119 337.135 233.46 L 337.135 233.46 Z  M 412.647 142.611 L 310.093 142.611 L 310.093 166.43 L 412.647 166.43 L 412.647 142.611 L 412.647 142.611 Z  M 304.532 349.473 C 322.277 363.8 342.784 370.954 366.001 370.954 C 394.141 370.954 416.03 362.472 431.649 345.488 C 441.708 334.81 447.34 324.29 448.562 313.948 L 401.986 313.948 C 399.277 319.066 396.142 323.069 392.583 325.955 C 386.083 331.285 377.654 333.96 367.258 333.96 C 357.447 333.96 349.071 331.782 342.111 327.389 C 330.636 320.359 324.561 308.069 323.853 290.572 L 450.952 290.572 C 451.165 275.501 450.669 263.955 449.447 255.932 C 447.322 242.261 442.682 230.219 435.545 219.877 C 427.629 208.118 417.57 199.493 405.369 194.057 C 393.22 188.602 379.548 185.875 364.336 185.875 C 338.782 185.875 317.974 193.95 301.946 210.083 C 285.92 226.199 277.915 249.38 277.915 279.61 C 277.915 311.876 286.788 335.164 304.532 349.473 L 304.532 349.473 Z  M 210.691 361.816 C 220.927 359.691 229.817 355.742 237.361 349.969 C 244.02 344.957 249.616 338.777 254.079 331.41 C 261.074 320.288 264.562 307.767 264.562 293.778 C 264.562 280.23 261.499 268.701 255.389 259.209 C 249.244 249.699 240.159 242.757 228.117 238.383 C 236.05 234.327 242.036 229.847 246.127 224.941 C 253.405 216.193 257.054 204.594 257.054 190.196 C 257.054 176.206 253.423 164.199 246.216 154.175 C 234.226 137.847 213.825 129.471 185.066 129.046 L 71 129.046 L 71 365.022 L 177.344 365.022 C 189.316 365.022 200.455 363.959 210.691 361.816 L 210.691 361.816 Z " fill-rule="evenodd" fill="rgb(245,245,245)"/></svg>