<?xml version="1.0" encoding="UTF-8" standalone="no"?><!-- Generator: Gravit.io --><svg xmlns="http://www.w3.org/2000/svg" xmlns:xlink="http://www.w3.org/1999/xlink" style="isolation:isolate" viewBox="0 0 500 500" width="500pt" height="500pt"><path d=" M 249.977 0 C 111.943 0 0 111.928 0 250.015 C 0 360.459 71.626 454.162 170.969 487.225 C 183.477 489.518 188.035 481.8 188.035 475.174 C 188.035 469.24 187.82 453.518 187.698 432.654 C 118.159 447.762 103.487 399.142 103.487 399.142 C 92.115 370.261 75.723 362.573 75.723 362.573 C 53.025 347.061 77.442 347.376 77.442 347.376 C 102.535 349.144 115.734 373.139 115.734 373.139 C 138.034 411.343 174.253 400.312 188.496 393.912 C 190.767 377.756 197.228 366.739 204.365 360.49 C 148.853 354.181 90.488 332.733 90.488 236.932 C 90.488 209.64 100.233 187.323 116.225 169.847 C 113.647 163.522 105.068 138.104 118.681 103.685 C 118.681 103.685 139.66 96.963 187.421 129.314 C 207.357 123.768 228.752 120.995 250.008 120.898 C 271.248 120.995 292.627 123.768 312.594 129.314 C 360.324 96.963 381.273 103.685 381.273 103.685 C 394.917 138.104 386.338 163.522 383.775 169.847 C 399.797 187.323 409.466 209.64 409.466 236.932 C 409.466 332.972 351.008 354.105 295.328 360.295 C 304.291 368.013 312.287 383.272 312.287 406.592 C 312.287 440.014 311.98 466.977 311.98 475.174 C 311.98 481.86 316.492 489.638 329.169 487.196 C 428.435 454.072 500 360.43 500 250.015 C 500 111.928 388.057 0 249.977 0 Z " fill-rule="evenodd" fill="rgb(245,245,245)"/></svg>